<?xml version="1.0" standalone="no"?>
<!DOCTYPE svg PUBLIC "-//W3C//DTD SVG 20010904//EN"
 "http://www.w3.org/TR/2001/REC-SVG-20010904/DTD/svg10.dtd">
<svg version="1.0" xmlns="http://www.w3.org/2000/svg"
 width="2000.000000pt" height="1500.000000pt" viewBox="0 0 2000.000000 1500.000000"
 preserveAspectRatio="xMidYMid meet">

<g transform="translate(0.000000,1500.000000) scale(0.100000,-0.100000)"
fill="#000000" stroke="none">
<path d="M0 7500 l0 -7500 10000 0 10000 0 0 7500 0 7500 -10000 0 -10000 0 0
-7500z m10570 4625 c868 -93 1610 -402 2255 -941 503 -420 978 -1055 1126
-1504 36 -110 90 -350 102 -457 l5 -41 -52 -22 c-28 -12 -56 -24 -62 -27 -7
-2 -22 27 -39 76 -73 220 -228 291 -448 205 -188 -74 -252 -85 -552 -94 -180
-5 -272 -5 -276 2 -4 6 -10 42 -14 82 -18 188 -93 516 -160 702 -46 127 -121
284 -177 371 -81 124 -451 481 -708 682 -147 114 -382 265 -546 348 -710 361
-1405 372 -2089 33 -283 -140 -534 -322 -794 -575 -280 -273 -502 -562 -607
-791 -98 -212 -174 -505 -199 -764 -15 -168 -11 -157 -68 -185 l-51 -26 -65
33 -65 33 -176 0 c-158 0 -180 -2 -221 -21 -60 -28 -118 -86 -149 -149 l-25
-50 -5 -1004 -5 -1005 -56 130 -56 129 23 115 c70 342 49 801 -51 1105 -64
195 -162 361 -294 498 l-66 69 3 66 c9 194 64 429 135 583 14 30 48 107 76
172 271 629 825 1199 1606 1656 249 146 568 299 811 390 217 80 732 166 1179
195 127 8 616 -4 755 -19z m3083 -3088 l36 -108 -24 -9 c-56 -21 -182 -40
-335 -49 -91 -6 -169 -11 -174 -11 -6 0 12 -14 39 -31 118 -75 222 -223 259
-370 22 -89 29 -216 17 -318 -38 -312 -217 -525 -506 -602 -114 -31 -332 -31
-424 -1 l-64 21 -29 -20 c-38 -28 -94 -103 -109 -146 -6 -19 -9 -67 -7 -107 4
-96 34 -143 115 -182 l57 -28 286 -7 c378 -9 482 -33 625 -142 139 -106 205
-247 205 -441 -1 -263 -149 -468 -408 -563 -287 -106 -795 -92 -1032 27 -74
37 -156 112 -201 181 -43 67 -78 183 -85 285 l-7 85 114 -3 114 -3 7 -74 c15
-144 93 -259 206 -301 119 -45 186 -54 402 -54 156 0 223 4 279 17 90 20 190
66 246 112 150 123 159 419 16 548 -103 93 -168 107 -526 117 -230 6 -301 11
-345 25 -141 44 -241 127 -280 233 -31 82 -26 214 12 294 33 71 78 129 140
178 l47 37 -51 33 c-76 49 -161 142 -201 218 -97 185 -114 460 -42 672 37 108
81 177 169 266 64 64 99 90 166 122 136 67 173 73 470 83 146 5 304 13 352 19
106 13 251 49 349 89 41 16 77 26 80 23 4 -4 23 -56 42 -115z m-8165 -33 c294
-60 500 -265 606 -602 98 -312 94 -800 -9 -1107 -84 -252 -236 -442 -430 -535
-246 -118 -574 -101 -789 40 -75 50 -172 145 -223 220 -80 117 -146 292 -179
475 -27 142 -27 565 0 710 21 117 72 277 117 367 93 186 259 342 429 404 125
44 337 57 478 28z m2299 2 c162 -43 283 -161 343 -336 l26 -76 45 66 c104 153
259 284 391 330 78 27 230 37 310 21 176 -37 315 -180 380 -391 l23 -75 3
-907 3 -908 -121 0 -120 0 0 849 c0 917 -1 941 -54 1056 -80 176 -266 232
-462 139 -98 -46 -235 -192 -337 -359 l-37 -60 0 -813 0 -812 -120 0 -119 0
-4 883 c-3 813 -4 887 -21 942 -36 119 -87 190 -167 230 -91 47 -218 42 -328
-11 -97 -48 -229 -188 -327 -346 l-44 -72 0 -813 0 -813 -120 0 -120 0 0 1125
0 1126 103 -3 102 -3 8 -115 c4 -63 10 -143 13 -177 l6 -63 57 78 c119 160
271 273 413 308 71 17 211 17 275 0z m3150 -1 c49 -9 111 -31 168 -59 223
-110 363 -337 421 -681 18 -108 30 -378 20 -458 l-7 -57 -674 0 -674 0 5 -57
c19 -223 63 -401 126 -512 42 -74 160 -192 226 -225 83 -42 165 -59 277 -59
175 1 305 47 452 157 l73 55 61 -75 61 -75 -22 -25 c-73 -76 -278 -188 -415
-225 -105 -29 -333 -32 -440 -6 -292 72 -514 316 -604 661 -41 156 -53 294
-48 526 5 227 19 335 64 490 28 97 95 246 144 317 112 164 278 276 460 312 71
14 241 12 326 -4z m4033 -9 c203 -57 341 -198 395 -402 29 -110 34 -247 35
-879 0 -536 2 -640 15 -690 18 -69 50 -114 102 -146 21 -12 40 -24 42 -25 2
-2 -48 -164 -54 -171 -7 -10 -129 44 -170 75 -78 59 -110 113 -151 261 -3 8
-25 -13 -53 -51 -102 -135 -231 -225 -381 -265 -81 -21 -281 -24 -360 -4 -213
52 -377 216 -436 436 -9 33 -18 114 -21 181 -11 235 49 406 188 543 108 106
265 176 461 205 72 11 179 16 337 16 l231 0 0 158 c-1 180 -16 284 -56 372
-33 75 -102 140 -182 172 -51 20 -74 23 -217 23 -181 0 -245 -11 -433 -77 -63
-22 -115 -38 -117 -36 -7 7 -65 159 -65 171 0 25 265 111 440 143 99 18 374
12 450 -10z m-1110 -386 c30 -81 68 -131 128 -169 38 -25 48 -37 46 -54 -2
-12 -13 -74 -25 -137 l-21 -115 -54 -48 c-149 -133 -252 -335 -285 -557 -8
-55 -10 -140 -6 -248 l6 -164 -32 26 c-82 66 -250 152 -335 171 -36 7 -42 21
-13 30 34 11 144 93 209 157 192 188 291 442 292 748 0 94 -21 248 -44 325 -8
27 -14 50 -13 51 3 3 110 42 118 43 4 1 17 -26 29 -59z m-6465 -550 c40 -262
98 -543 177 -850 67 -259 71 -284 77 -420 6 -135 9 -149 36 -198 16 -30 42
-64 57 -77 24 -20 42 -65 107 -262 181 -547 411 -1139 637 -1639 95 -211 159
-489 196 -849 14 -143 15 -699 1 -825 l-8 -75 -1222 -3 -1221 -2 -6 27 c-44
214 -395 2117 -391 2121 11 11 267 28 271 17 2 -5 103 -316 223 -690 l219
-680 274 1 c150 1 537 5 860 9 l586 7 11 44 c19 76 13 219 -14 329 -70 287
-236 594 -554 1025 -256 345 -444 621 -643 940 -116 186 -248 412 -248 424 0
3 64 6 143 6 165 0 212 11 276 66 56 48 88 107 100 184 7 41 11 351 12 835 1
425 5 757 9 740 5 -16 20 -109 35 -205z m5380 -1499 c153 -5 261 -12 278 -19
26 -11 28 -15 25 -63 -4 -63 -23 -81 -113 -104 -129 -33 -421 -28 -510 9 -36
16 -37 19 -50 140 l-7 59 64 -8 c34 -4 176 -10 313 -14z m-595 -925 c126 -42
252 -64 418 -73 67 -3 122 -9 122 -12 0 -10 -228 -301 -308 -394 -42 -49 -101
-117 -130 -150 -198 -230 -367 -585 -447 -942 -24 -110 -54 -301 -55 -351 l0
-21 773 -9 c424 -5 805 -9 846 -9 l75 0 211 645 c184 562 213 645 230 645 67
0 255 -18 255 -24 0 -10 -368 -2026 -375 -2058 l-5 -23 -1244 0 -1243 0 -18
108 c-58 365 -8 854 130 1282 21 63 78 205 127 315 99 219 245 565 315 745 38
98 134 349 148 387 3 9 13 8 37 -7 18 -10 80 -35 138 -54z"/>
<path d="M12630 8819 c-205 -30 -340 -162 -385 -374 -19 -89 -19 -270 0 -358
33 -157 128 -281 263 -345 72 -34 83 -36 198 -40 94 -3 134 0 180 13 232 67
335 233 335 540 0 215 -49 355 -162 460 -101 93 -254 130 -429 104z m218 -309
c20 -13 42 -39 55 -68 19 -41 22 -64 22 -187 0 -155 -12 -198 -68 -239 -38
-28 -166 -35 -221 -12 -37 15 -38 18 -33 54 4 20 14 129 23 242 9 113 18 211
20 218 2 8 28 12 86 12 66 0 90 -4 116 -20z"/>
<path d="M5185 8800 c-262 -54 -420 -275 -470 -657 -19 -148 -19 -438 0 -586
48 -370 202 -594 446 -652 188 -44 386 8 508 133 149 154 217 374 228 742 19
604 -138 946 -466 1016 -72 15 -182 17 -246 4z"/>
<path d="M10605 8789 c-173 -60 -301 -220 -359 -451 -22 -83 -35 -175 -50
-335 l-5 -53 561 0 561 0 -7 131 c-22 418 -150 651 -391 714 -87 22 -235 19
-310 -6z"/>
<path d="M14670 7888 c-257 -32 -421 -164 -466 -377 -31 -146 -8 -346 50 -445
149 -255 561 -243 771 21 25 32 64 90 85 128 l40 70 0 308 0 307 -202 -1
c-112 -1 -237 -6 -278 -11z"/>
</g>
</svg>
